<?xml version="1.0" encoding="UTF-8"?>
<svg width="216px" height="26px" viewBox="0 0 216 26" version="1.1" xmlns="http://www.w3.org/2000/svg" xmlns:xlink="http://www.w3.org/1999/xlink">
    <title>Sign_In_With_InkGold_DE</title>
    <g id="Sign_In_With_InkGold_DE" stroke="none" stroke-width="1" fill="none" fill-rule="evenodd">
        <g id="button-/-primary-/-normal">
            <path d="M9.76601 15L8.66401 11.694H3.61001L2.54601 15H0.152008L4.94001 1.833H7.44801L12.217 15H9.76601ZM4.16101 10.003H8.13201L6.13701 3.923L4.16101 10.003Z" fill="black"/>
            <path d="M20.147 15V8.597C20.147 7.97634 20.0203 7.52667 19.767 7.248C19.5137 6.95667 19.1083 6.811 18.551 6.811C17.715 6.811 16.86 7.08967 15.986 7.647V15H13.744V5.329H15.606L15.834 6.393C17.0247 5.49367 18.266 5.044 19.558 5.044C20.4827 5.044 21.1857 5.291 21.667 5.785C22.1483 6.26634 22.389 6.96934 22.389 7.894V15H20.147Z" fill="black"/>
            <path d="M37.2983 15V8.445C37.2983 7.86234 37.1843 7.44434 36.9563 7.191C36.7283 6.93767 36.3547 6.811 35.8353 6.811C35.4427 6.811 35.0247 6.88067 34.5813 7.02C34.138 7.14667 33.7517 7.31134 33.4223 7.514V15H31.1803V8.445C31.1803 7.86234 31.0663 7.44434 30.8383 7.191C30.6103 6.93767 30.2367 6.811 29.7173 6.811C29.35 6.811 28.951 6.87434 28.5203 7.001C28.1023 7.115 27.697 7.286 27.3043 7.514V15H25.0623V5.329H26.9243L27.1333 6.298C27.7667 5.86734 28.362 5.55067 28.9193 5.348C29.4893 5.14534 30.0593 5.044 30.6293 5.044C31.8073 5.044 32.618 5.481 33.0613 6.355C34.328 5.481 35.544 5.044 36.7093 5.044C37.6087 5.044 38.3053 5.291 38.7993 5.785C39.2933 6.26634 39.5403 6.96934 39.5403 7.894V15H37.2983Z" fill="black"/>
            <path d="M43.8024 10.706C43.8404 11.6687 44.1064 12.378 44.6004 12.834C45.1071 13.2773 45.8798 13.499 46.9184 13.499C47.8558 13.499 48.8691 13.3217 49.9584 12.967V14.544C49.5278 14.772 49.0148 14.9493 48.4194 15.076C47.8368 15.2153 47.2288 15.285 46.5954 15.285C44.9994 15.285 43.7898 14.8543 42.9664 13.993C42.1431 13.1317 41.7314 11.8777 41.7314 10.231C41.7314 8.597 42.1304 7.324 42.9284 6.412C43.7391 5.5 44.8664 5.044 46.3104 5.044C47.5518 5.044 48.5018 5.386 49.1604 6.07C49.8318 6.74134 50.1674 7.69767 50.1674 8.939C50.1674 9.59767 50.1104 10.1867 49.9964 10.706H43.8024ZM46.2154 6.678C45.5314 6.678 44.9741 6.906 44.5434 7.362C44.1128 7.818 43.8658 8.43234 43.8024 9.205H48.1914V9.053C48.1914 8.28034 48.0204 7.69134 47.6784 7.286C47.3491 6.88067 46.8614 6.678 46.2154 6.678Z" fill="black"/>
            <path d="M56.1373 14.848C55.6686 15.0253 55.1683 15.114 54.6363 15.114C53.889 15.114 53.319 14.905 52.9263 14.487C52.5463 14.0563 52.3563 13.4357 52.3563 12.625V0.940002H54.5983V12.454C54.5983 12.7707 54.6553 12.9987 54.7693 13.138C54.896 13.2773 55.0986 13.347 55.3773 13.347C55.6053 13.347 55.8586 13.328 56.1373 13.29V14.848Z" fill="black"/>
            <path d="M64.7971 15L64.5691 14.069C63.7078 14.829 62.7135 15.209 61.5861 15.209C60.3701 15.209 59.3948 14.7593 58.6601 13.86C57.9381 12.948 57.5771 11.7257 57.5771 10.193C57.5771 9.17967 57.7418 8.28667 58.0711 7.514C58.4005 6.74134 58.8755 6.13967 59.4961 5.709C60.1168 5.26567 60.8515 5.044 61.7001 5.044C62.7135 5.044 63.6381 5.37334 64.4741 6.032V0.940002H66.7161V15H64.7971ZM62.2891 13.442C63.0365 13.442 63.7648 13.2013 64.4741 12.72V7.495C63.8281 7.039 63.1125 6.811 62.3271 6.811C61.4785 6.811 60.8515 7.08334 60.4461 7.628C60.0535 8.16 59.8571 8.98334 59.8571 10.098C59.8571 12.3273 60.6678 13.442 62.2891 13.442Z" fill="black"/>
            <path d="M71.0222 10.706C71.0602 11.6687 71.3262 12.378 71.8202 12.834C72.3268 13.2773 73.0995 13.499 74.1382 13.499C75.0755 13.499 76.0888 13.3217 77.1782 12.967V14.544C76.7475 14.772 76.2345 14.9493 75.6392 15.076C75.0565 15.2153 74.4485 15.285 73.8152 15.285C72.2192 15.285 71.0095 14.8543 70.1862 13.993C69.3628 13.1317 68.9512 11.8777 68.9512 10.231C68.9512 8.597 69.3502 7.324 70.1482 6.412C70.9588 5.5 72.0862 5.044 73.5302 5.044C74.7715 5.044 75.7215 5.386 76.3802 6.07C77.0515 6.74134 77.3872 7.69767 77.3872 8.939C77.3872 9.59767 77.3302 10.1867 77.2162 10.706H71.0222ZM73.4352 6.678C72.7512 6.678 72.1938 6.906 71.7632 7.362C71.3325 7.818 71.0855 8.43234 71.0222 9.205H75.4112V9.053C75.4112 8.28034 75.2402 7.69134 74.8982 7.286C74.5688 6.88067 74.0812 6.678 73.4352 6.678Z" fill="black"/>
            <path d="M85.979 15V8.597C85.979 7.97634 85.8523 7.52667 85.599 7.248C85.3457 6.95667 84.9404 6.811 84.383 6.811C83.547 6.811 82.692 7.08967 81.818 7.647V15H79.576V5.329H81.438L81.666 6.393C82.8567 5.49367 84.098 5.044 85.39 5.044C86.3147 5.044 87.0177 5.291 87.499 5.785C87.9803 6.26634 88.221 6.96934 88.221 7.894V15H85.979Z" fill="black"/>
            <path d="M108.103 15V8.445C108.103 7.86234 107.989 7.44434 107.761 7.191C107.533 6.93767 107.159 6.811 106.64 6.811C106.247 6.811 105.829 6.88067 105.386 7.02C104.943 7.14667 104.556 7.31134 104.227 7.514V15H101.985V8.445C101.985 7.86234 101.871 7.44434 101.643 7.191C101.415 6.93767 101.041 6.811 100.522 6.811C100.155 6.811 99.7557 6.87434 99.325 7.001C98.907 7.115 98.5017 7.286 98.109 7.514V15H95.867V5.329H97.729L97.938 6.298C98.5714 5.86734 99.1667 5.55067 99.724 5.348C100.294 5.14534 100.864 5.044 101.434 5.044C102.612 5.044 103.423 5.481 103.866 6.355C105.133 5.481 106.349 5.044 107.514 5.044C108.413 5.044 109.11 5.291 109.604 5.785C110.098 6.26634 110.345 6.96934 110.345 7.894V15H108.103Z" fill="black"/>
            <path d="M113.106 15V5.329H115.348V15H113.106ZM114.227 3.733C113.809 3.733 113.48 3.619 113.239 3.391C112.998 3.163 112.878 2.84634 112.878 2.441C112.878 2.03567 112.998 1.719 113.239 1.491C113.48 1.263 113.809 1.149 114.227 1.149C114.645 1.149 114.974 1.263 115.215 1.491C115.456 1.719 115.576 2.03567 115.576 2.441C115.576 2.84634 115.456 3.163 115.215 3.391C114.974 3.619 114.645 3.733 114.227 3.733Z" fill="black"/>
            <path d="M123.737 14.772C123.079 15.0127 122.369 15.133 121.609 15.133C120.609 15.133 119.868 14.8987 119.386 14.43C118.905 13.9613 118.664 13.2457 118.664 12.283V7.039H117.03V5.633L118.74 5.386L119.082 2.669H120.906V5.329H123.661V7.039H120.906V12.169C120.906 12.5997 121.008 12.91 121.21 13.1C121.426 13.2773 121.78 13.366 122.274 13.366C122.806 13.366 123.294 13.3153 123.737 13.214V14.772Z" fill="black"/>
        </g>
        <g id="amazon_logo_CMYK" transform="translate(130.000000, 0.000000)">
            <path d="M53.3065725,20.3336049 C48.3140967,24.0329877 41.0763494,26 34.8437472,26 C26.1088327,26 18.2428699,22.7580247 12.2906468,17.3622222 C11.8232416,16.9378765 12.2398141,16.3597778 12.8018513,16.6875062 C19.2240372,20.4395309 27.1657695,22.698963 35.3683792,22.698963 C40.9014721,22.698963 46.9838141,21.5462963 52.5808476,19.162642 C53.4248625,18.8034568 54.132684,19.7208395 53.3065725,20.3336049" id="Fill-1" fill="#EC9636"></path>
            <path d="M55.384,17.9521975 C54.7455539,17.1317531 51.1632862,17.5638025 49.5535836,17.757037 C49.0663569,17.8160988 48.9909071,17.3882222 49.4301784,17.0784691 C52.288,15.0629877 56.970684,15.6449383 57.5148178,16.3199753 C58.0627881,17.0004691 57.370632,21.7138519 54.692803,23.9633333 C54.2807063,24.309037 53.8884312,24.1244691 54.0716208,23.6677037 C54.6742602,22.1568148 56.0230855,18.7739259 55.384,17.9521975" id="Fill-2" fill="#EC9636"></path>
            <path d="M49.6670781,2.8417037 L49.6670781,0.883679012 C49.6689963,0.585160494 49.8921487,0.387111111 50.161658,0.388074074 L58.9032862,0.387111111 C59.183026,0.387111111 59.4074572,0.591259259 59.4074572,0.881111111 L59.4074572,2.56051852 C59.4045799,2.84234568 59.1683197,3.20955556 58.7491896,3.7934321 L54.2209219,10.2841235 C55.9015985,10.244642 57.6794647,10.4979012 59.2070037,11.3594321 C59.5513234,11.5536296 59.6437175,11.8412346 59.6705725,12.1237037 L59.6705725,14.2133333 C59.6705725,14.5009383 59.3566245,14.8344444 59.0266914,14.6607901 C56.3363941,13.2455556 52.7659554,13.0911605 49.790803,14.6781235 C49.4864461,14.8405432 49.1686617,14.5121728 49.1686617,14.2236049 L49.1686617,12.2376543 C49.1686617,11.9198765 49.1747361,11.3764444 49.494119,10.8920741 L54.740119,3.33538272 L50.1722082,3.33506173 C49.8931078,3.33506173 49.6689963,3.13508642 49.6670781,2.8417037" id="Fill-3" fill="#1D222F"></path>
            <g id="Group-8" fill="#1D222F">
                <path d="M66.9329368,0.134814815 C70.8796654,0.134814815 73.0143197,3.53792593 73.0143197,7.86323457 C73.0143197,12.0440988 70.6568327,15.3611852 66.9329368,15.3611852 C63.0600595,15.3611852 60.9493829,11.9577531 60.9493829,7.71911111 C60.9493829,3.45093827 63.0843569,0.134814815 66.9329368,0.134814815 Z M66.9569145,2.93222222 C64.995539,2.93222222 64.871801,5.6134321 64.871801,7.28641975 C64.871801,8.95876543 64.847197,12.5345679 66.9329368,12.5345679 C68.9934201,12.5345679 69.0922082,9.65081481 69.0922082,7.89244444 C69.0922082,6.7391358 69.0426543,5.35471605 68.6944981,4.25854321 C68.396855,3.30681481 67.8009294,2.93222222 66.9569145,2.93222222 L66.9569145,2.93222222 Z" id="Fill-4"></path>
                <path d="M42.6991599,8.528 C42.6991599,9.56896296 42.7247361,10.4353086 42.2020223,11.360716 C41.7793755,12.1115062 41.1073606,12.5743704 40.3611747,12.5743704 C39.3413234,12.5743704 38.744119,11.7937284 38.744119,10.6375309 C38.744119,8.36333333 40.7761487,7.95022222 42.6991599,7.95022222 L42.6991599,8.528 Z M45.3808253,15.0379506 C45.2049888,15.1965185 44.8836877,15.2019753 44.7526097,15.1002222 C43.8440149,14.3943704 43.2282677,13.3209877 43.2282677,13.3209877 C41.7681859,14.8139012 40.7342677,15.262321 38.8435465,15.262321 C36.6046691,15.262321 34.8632491,13.8743704 34.8632491,11.1003951 C34.8632491,8.93276543 36.0320818,7.45879012 37.6993309,6.7365679 C39.141829,6.10037037 41.1575539,5.98481481 42.6991599,5.81116049 C42.6991599,5.81116049 42.8283197,4.13817284 42.3762602,3.5282963 C42.0261859,3.05548148 41.4305799,2.83432099 40.8838885,2.83432099 C39.8972862,2.83046914 38.9442528,3.36908642 38.7549888,4.40523457 C38.7009591,4.70150617 38.4829219,4.95059259 38.2533755,4.92555556 L35.7066245,4.64854321 C35.5116059,4.62575309 35.2468922,4.42385185 35.3095539,4.09002469 C35.9019628,0.950765432 38.7255762,0.00224691358 41.2566617,0.00224691358 C42.5504981,0.00224691358 44.2420446,0.348592593 45.2622156,1.33177778 C46.5554126,2.5454321 46.4316877,4.16417284 46.4316877,5.92735802 L46.4316877,10.086716 C46.4316877,11.3385679 46.9489665,11.8871358 47.4345948,12.5608889 C47.6043569,12.8045185 47.6430409,13.0930864 47.4266022,13.2705926 C46.8831078,13.728 45.3808253,15.0379506 45.3808253,15.0379506 L45.3808253,15.0379506 Z" id="Fill-6"></path>
                <path d="M7.83623048,8.528 C7.83623048,9.56896296 7.86116729,10.4353086 7.33877323,11.360716 C6.91612639,12.1115062 6.24411152,12.5743704 5.49792565,12.5743704 C4.47807435,12.5743704 3.88086989,11.7937284 3.88086989,10.6375309 C3.88086989,8.36333333 5.91289963,7.95022222 7.83623048,7.95022222 L7.83623048,8.528 Z M10.5175762,15.0379506 C10.3417398,15.1965185 10.0204387,15.2019753 9.88936059,15.1002222 C8.9807658,14.3943704 8.36501859,13.3209877 8.36501859,13.3209877 C6.9046171,14.8139012 5.87101859,15.262321 3.9806171,15.262321 C1.74142007,15.262321 0,13.8743704 0,11.1003951 C0,8.93276543 1.16883271,7.45879012 2.83608178,6.7365679 C4.27857993,6.10037037 6.29430483,5.98481481 7.83623048,5.81116049 C7.83623048,5.81116049 7.96475093,4.13817284 7.51301115,3.5282963 C7.1629368,3.05548148 6.56733086,2.83432099 6.0203197,2.83432099 C5.03403717,2.83046914 4.08100372,3.36908642 3.89173978,4.40523457 C3.83771004,4.70150617 3.61999257,4.95059259 3.3904461,4.92555556 L0.843375465,4.64854321 C0.648356877,4.62575309 0.383643123,4.42385185 0.446304833,4.09002469 C1.03839405,0.950765432 3.86232714,0.00224691358 6.39341264,0.00224691358 C7.68724907,0.00224691358 9.37879554,0.348592593 10.3989665,1.33177778 C11.6921636,2.5454321 11.568119,4.16417284 11.568119,5.92735802 L11.568119,10.086716 C11.568119,11.3385679 12.0857175,11.8871358 12.5716654,12.5608889 C12.7411078,12.8045185 12.7801115,13.0930864 12.5633532,13.2705926 C12.0201784,13.728 10.5175762,15.0379506 10.5175762,15.0379506 L10.5175762,15.0379506 Z" id="Fill-7"></path>
            </g>
            <path d="M18.2949814,7.31498765 C18.2949814,5.72898765 18.220171,3.53792593 20.1319926,3.53792593 C22.0179182,3.53792593 21.7701487,5.78676543 21.7701487,7.31498765 L21.7727063,14.5805432 C21.7727063,14.8431111 21.9830706,15.055284 22.2500223,15.0722963 L24.9067509,15.0722963 C25.1896877,15.0722963 25.4192342,14.8524198 25.4192342,14.5792593 L25.4192342,7.31498765 C25.4192342,6.5362716 25.3946171,5.38328395 25.6673234,4.69091358 C25.9406691,3.9988642 26.6110855,3.56617284 27.2565651,3.56617284 C28.0257695,3.56617284 28.6216952,3.82585185 28.8202305,4.74901235 C28.9442751,5.29693827 28.8947212,6.7391358 28.8947212,7.31498765 L28.8956803,14.5805432 C28.8956803,14.8431111 29.1057249,15.055284 29.3726766,15.0722963 L32.0287658,15.0722963 C32.3126617,15.0722963 32.5418885,14.8524198 32.5418885,14.5792593 L32.5444461,5.93120988 C32.5444461,4.46012346 32.7177249,2.78809877 31.87371,1.63414815 C31.1291227,0.596074074 29.9126543,0.134814815 28.7956134,0.134814815 C27.2316283,0.134814815 25.7670706,0.942419753 25.1212714,2.67254321 C24.376684,0.942419753 23.3338141,0.134814815 21.6707212,0.134814815 C20.0325651,0.134814815 18.8160967,0.942419753 18.1709368,2.67254321 L18.1207435,2.67254321 L18.1207435,0.922518519 C18.1207435,0.647111111 17.8982305,0.423703704 17.6239257,0.423703704 L15.1423941,0.423703704 C14.8680892,0.423703704 14.6455762,0.647111111 14.6455762,0.922518519 L14.6455762,14.5734815 C14.6455762,14.8488889 14.8680892,15.0722963 15.1423941,15.0722963 L17.7978439,15.0722963 C18.0721487,15.0722963 18.2946617,14.8488889 18.2946617,14.5734815 L18.2949814,7.31498765" id="Fill-9" fill="#1D222F"></path>
            <path d="M78.6522751,14.5734815 C78.6522751,14.8488889 78.4300818,15.0722963 78.155777,15.0722963 L75.5000074,15.0722963 C75.2257026,15.0722963 75.0031896,14.8488889 75.0031896,14.5734815 L75.0031896,0.922518519 C75.0031896,0.647111111 75.2257026,0.423703704 75.5000074,0.423703704 L77.9553234,0.423703704 C78.2430558,0.423703704 78.4521413,0.656098765 78.4521413,0.813382716 L78.4521413,2.90333333 L78.5036134,2.90333333 C79.2485204,1.02812346 80.2904312,0.134814815 82.1274424,0.134814815 C83.3192937,0.134814815 84.4862082,0.566864198 85.2311152,1.7497037 C85.925829,2.84523457 85.925829,4.69091358 85.925829,6.01755556 L85.925829,14.6412099 C85.8964164,14.8835556 85.6790186,15.0722963 85.416223,15.0722963 L82.7505428,15.0722963 C82.5037323,15.0565679 82.305197,14.8748889 82.2767435,14.6412099 L82.2812193,6.36037037 C82.2812193,3.59024691 81.2239628,3.50871605 80.6139703,3.50871605 C79.9042305,3.50871605 79.3332416,4.06498765 79.0835539,4.58434568 C78.7114201,5.42083951 78.6519554,6.27691358 78.6519554,7.20039506 L78.6522751,14.5734815" id="Fill-10" fill="#1D222F"></path>
        </g>
    </g>
</svg>