<svg width="29" height="22" viewBox="0 0 29 22" fill="none" xmlns="http://www.w3.org/2000/svg">
<path d="M28.1582 15.639H27.0919V10.8362C27.0919 10.0898 26.7898 9.35674 26.2567 8.82804L22.5291 5.10045C22.0048 4.5673 21.2717 4.26518 20.5209 4.26518H18.5616V2.07039C18.5616 0.928565 17.5752 0 16.3668 0H2.27389C1.06542 0 0.0791016 0.928565 0.0791016 2.07039V14.9903C0.0791016 16.1322 1.06542 17.0607 2.27389 17.0607H2.99364C2.94477 17.2918 2.92256 17.5272 2.92256 17.7716C2.92256 19.7353 4.51311 21.3259 6.47687 21.3259C8.44063 21.3259 10.0312 19.7353 10.0312 17.7716C10.0312 17.5272 10.0045 17.2918 9.9601 17.0607H18.6326C18.5838 17.2918 18.5616 17.5272 18.5616 17.7716C18.5616 19.7353 20.1521 21.3259 22.1159 21.3259C24.0796 21.3259 25.6702 19.7353 25.6702 17.7716C25.6702 17.5272 25.6435 17.2918 25.5991 17.0607H28.1582C28.3537 17.0607 28.5136 16.9008 28.5136 16.7053V15.9944C28.5136 15.7989 28.3537 15.639 28.1582 15.639ZM20.5209 5.68691C20.8941 5.68691 21.2628 5.83797 21.525 6.10454L25.2526 9.83213C25.2881 9.86767 25.3014 9.91655 25.3325 9.95653H18.5616V5.69135L20.5209 5.68691ZM6.47687 19.9042C5.29951 19.9042 4.34428 18.949 4.34428 17.7716C4.34428 16.5942 5.29951 15.639 6.47687 15.639C7.65424 15.639 8.60946 16.5942 8.60946 17.7716C8.60946 18.949 7.65424 19.9042 6.47687 19.9042ZM9.30256 15.639C8.65389 14.7815 7.63203 14.2173 6.47687 14.2173C5.32172 14.2173 4.29985 14.7815 3.65119 15.639H2.27389C1.84737 15.639 1.50083 15.3502 1.50083 14.9903V2.07039C1.50083 1.71052 1.84737 1.42173 2.27389 1.42173H16.3668C16.7933 1.42173 17.1398 1.71052 17.1398 2.07039V15.639H9.30256ZM22.1159 19.9042C20.9385 19.9042 19.9833 18.949 19.9833 17.7716C19.9833 16.5942 20.9385 15.639 22.1159 15.639C23.2932 15.639 24.2485 16.5942 24.2485 17.7716C24.2485 18.949 23.2932 19.9042 22.1159 19.9042ZM22.1159 14.2173C20.9563 14.2173 19.9389 14.7815 19.2902 15.639H18.5616V11.3738H25.6702V15.639H24.9416C24.2929 14.7815 23.2755 14.2173 22.1159 14.2173Z" fill="#6F4266"/>
</svg>
