<svg width="16" height="22" viewBox="0 0 16 22" fill="none" xmlns="http://www.w3.org/2000/svg">
<path d="M13.0013 17.3273H9.66916C9.48589 17.3273 9.33594 17.4772 9.33594 17.6605V18.3269C9.33594 18.5102 9.48589 18.6602 9.66916 18.6602H13.0013C13.1846 18.6602 13.3345 18.5102 13.3345 18.3269V17.6605C13.3345 17.4772 13.1846 17.3273 13.0013 17.3273ZM2.6716 9.99652V13.9951C2.6716 14.3617 3.01315 14.6616 3.43383 14.6616H12.5723C12.993 14.6616 13.3345 14.3617 13.3345 13.9951V9.99652C13.3345 9.62998 12.993 9.33008 12.5723 9.33008H3.43383C3.01315 9.33008 2.6716 9.62998 2.6716 9.99652ZM4.00447 10.663H12.0017V13.3287H4.00447V10.663ZM3.00481 3.99861H7.66986C7.85313 3.99861 8.00307 3.84866 8.00307 3.66539V2.99896C8.00307 2.81569 7.85313 2.66574 7.66986 2.66574H3.00481C2.82155 2.66574 2.6716 2.81569 2.6716 2.99896V3.66539C2.6716 3.84866 2.82155 3.99861 3.00481 3.99861ZM3.00481 6.66435H7.66986C7.85313 6.66435 8.00307 6.5144 8.00307 6.33113V5.66469C8.00307 5.48142 7.85313 5.33148 7.66986 5.33148H3.00481C2.82155 5.33148 2.6716 5.48142 2.6716 5.66469V6.33113C2.6716 6.5144 2.82155 6.66435 3.00481 6.66435ZM15.413 4.08191L11.9184 0.587295C11.5435 0.212426 11.0354 0 10.5064 0H2.00516C0.901381 0.00416522 0.00585938 0.899687 0.00585938 2.00347V19.3266C0.00585938 20.4304 0.901381 21.3259 2.00516 21.3259H14.001C15.1048 21.3259 16.0003 20.4304 16.0003 19.3266V5.49808C16.0003 4.9691 15.7879 4.45678 15.413 4.08191ZM10.6688 1.35786C10.7854 1.38702 10.8896 1.44533 10.977 1.5328L14.4717 5.02742C14.5591 5.11488 14.6174 5.21902 14.6466 5.33564H10.6688V1.35786ZM14.6674 19.3266C14.6674 19.6931 14.3675 19.993 14.001 19.993H2.00516C1.63862 19.993 1.33873 19.6931 1.33873 19.3266V2.00347C1.33873 1.63693 1.63862 1.33287 2.00516 1.33287H9.33594V5.66886C9.33594 6.22283 9.78162 6.66435 10.3356 6.66435H14.6674V19.3266Z" fill="#6F4266"/>
</svg>
