<svg width="28" height="32" viewBox="0 0 28 32" fill="none" xmlns="http://www.w3.org/2000/svg">
<path d="M13.3601 8.29406C13.1482 10.0015 14.6855 10.8551 15.9801 11.6673C16.1496 11.7731 16.2767 11.9317 16.3422 12.113C17.0281 14.0508 17.868 16.3286 20.1952 16.6686C24.6568 16.3626 18.2918 17.4807 23.736 18.9539C23.7745 18.9652 23.8092 18.9803 23.84 19.003C24.915 19.7812 26.171 20.276 26.8569 21.4206C26.9493 21.8474 26.722 22.8749 26.198 22.4178C25.7472 22.2063 25.8859 21.6548 25.6124 21.2846C25.1731 21.1033 24.5798 21.311 24.2253 20.8879C23.8131 19.5772 22.2719 22.5462 22.6957 22.9277C24.0519 23.2601 23.7514 23.6681 24.1097 24.6842C24.0134 25.0091 23.9441 25.0431 23.6011 24.9373C22.2141 25.0242 23.1812 26.2707 22.3721 26.6409C22.0253 26.7882 21.8789 27.1056 21.7864 27.4304C21.4859 28.0272 20.4841 27.6571 20.6845 26.9545C20.9118 26.6636 21.6092 26.2481 21.1815 25.825C21.1314 25.6135 21.4897 25.4699 21.7017 25.4926C22.3682 25.2244 21.4628 24.4803 21.5976 23.9854C21.5475 23.4037 20.9157 23.0108 21.0428 22.38C20.8039 21.4583 20.3685 22.1156 19.9255 21.8965C18.3419 20.8237 19.7713 21.6585 18.9468 20.2722C18.7465 19.9814 17.2862 20.8162 18.1994 20.038C17.9605 19.766 17.7254 19.7056 17.4134 19.7434C17.3247 19.7547 17.24 19.7018 17.2169 19.615C17.0897 19.1805 16.8316 18.5799 16.3654 18.5157C16.034 18.7461 15.5871 18.2475 15.2365 18.4704C15.171 18.5119 15.0823 18.5044 15.0207 18.4515C14.3233 17.8547 13.4371 17.4769 12.9478 16.6044C12.9131 16.5439 12.8631 16.4986 12.8053 16.4646C12.235 16.1284 12.0655 15.3729 11.3489 15.2067C11.2448 15.1689 11.137 15.1425 11.0715 15.2823C10.9597 15.3843 10.7054 15.2218 10.9096 15.1312C11.1793 14.6741 10.5012 14.387 10.1891 14.1037C10.139 14.0584 10.1198 13.9866 10.1275 13.9186C10.1506 13.7562 9.97337 13.6202 9.80384 13.624C9.69981 13.624 9.61505 13.5447 9.60349 13.4427C9.53029 12.6683 9.07564 11.6975 8.88685 10.8174C8.85217 10.5907 8.40138 10.3339 8.1625 10.3641C8.07773 10.3754 7.99297 10.3603 7.92362 10.3112C7.53833 10.0354 7.19542 9.58971 6.76389 9.60105C6.67913 9.60482 6.59821 9.5746 6.52886 9.5255C5.75828 8.97777 5.12255 9.71059 4.67561 10.3074C4.65249 10.3376 4.63708 10.3679 4.62937 10.4019C4.52149 10.806 3.76632 11.2707 3.32323 11.2027C3.15371 11.1762 3.07279 10.9836 3.16912 10.8438C3.96667 9.69548 2.93794 10.4774 2.18662 9.94479C1.77821 9.8428 1.78592 9.48395 1.7551 9.16664C1.70501 9.06465 1.6241 8.97022 1.78207 8.88334C1.90921 8.77757 1.80904 8.53204 2.04406 8.51693C2.24056 8.46027 1.93618 8.02964 1.81674 8.03342C1.12322 7.99565 0.872778 7.06641 1.74739 7.08529C2.70677 6.73399 1.97471 6.29204 1.88224 5.74809C1.85912 5.62721 1.64721 5.57811 1.56245 5.50256C1.21569 4.99639 2.10956 4.90951 2.40624 4.93217C2.78383 4.93973 3.09976 4.41467 3.43497 4.71308C3.79329 5.01905 4.27105 4.37689 4.40205 4.01426C4.25949 3.81406 4.37508 3.71962 4.5369 3.6063C5.23428 2.69595 4.86055 3.61008 5.28437 3.99537C5.37684 4.27113 5.63113 4.24091 5.87001 4.30134C5.9201 4.31268 5.94707 4.37312 5.91625 4.41844C5.91625 4.41844 5.91625 4.41844 5.91625 4.42222C5.87387 4.49021 5.88542 4.58087 5.94322 4.63376C6.03569 4.72064 6.05495 4.84151 6.09734 4.93973C6.13972 5.03794 6.29383 5.00772 6.29383 4.90195C6.29383 4.2749 6.87562 4.08981 6.84865 3.40232C6.87562 2.3862 7.3765 3.76873 7.79262 3.71207C8.23185 2.87348 8.85217 4.49777 8.752 3.64408C8.85217 3.289 8.47073 3.31544 8.54394 3.02836C8.64026 2.81682 8.73273 2.63929 8.99088 2.69972C8.97932 2.95659 9.33764 2.96037 9.43782 2.79794C9.37617 2.56374 9.27985 2.5033 9.39158 2.23888C9.31452 1.90647 9.75761 1.9178 9.99649 1.95557C10.4897 2.51841 10.6438 2.118 10.9173 1.73649C10.952 1.68738 11.006 1.65338 11.0637 1.64205C11.8228 1.49095 12.4508 1.50229 13.1944 1.21143C13.4526 1.27564 12.8053 1.71004 13.31 1.83848C13.5219 2.15955 13.6722 2.5864 14.1538 2.57129C18.8813 3.11902 14.4273 3.4061 16.3345 4.01426C16.4964 4.23335 15.6256 4.55821 16.2421 4.64509C16.558 4.7773 15.9993 5.12104 16.454 5.2457C16.5734 5.33258 16.8007 5.48745 16.8624 5.63477C16.9202 5.76698 16.716 5.85764 16.6466 5.7292C16.4887 5.44212 16.1535 5.05683 16.0995 5.46479C15.7605 5.75187 15.4175 4.92839 15.1055 5.4799C15.4522 5.47612 15.2904 5.62344 15.1093 5.69143C14.2 5.88408 12.6743 6.76421 13.8494 7.64435C13.9727 7.84077 13.8494 8.23362 13.5836 8.16185C13.4834 8.1203 13.3755 8.1883 13.3601 8.29406Z" stroke="#6F4266" stroke-width="1.5" stroke-miterlimit="10" stroke-linecap="round"/>
<path d="M7.02186 18.6367C7.33009 18.5347 7.18754 18.7954 7.29156 18.8407C7.36477 18.8709 7.40715 18.9465 7.41486 19.022C7.45339 19.4564 7.7385 20.1175 7.91188 20.4046C8.05059 20.6048 8.02747 20.8239 7.84638 20.9901C7.56897 21.2507 7.53815 21.432 7.74236 21.7191C7.76933 21.7531 7.78089 21.7984 7.78089 21.84C7.77703 22.6559 7.65374 23.5209 7.44953 24.3293C7.42642 24.4199 7.32239 24.4577 7.24533 24.4048C6.62116 23.9893 6.29751 24.0158 6.22431 24.8355C5.6271 25.6514 5.15319 24.0989 5.05302 24.6579C5.04146 24.7297 4.93743 24.7335 4.91817 24.6655C4.87193 24.4728 5.06843 24.3142 4.9567 24.0422C4.74864 23.4114 5.63481 22.1762 4.97211 22.3348C4.77946 21.9684 5.16861 21.9231 5.0954 21.6209C5.03375 21.4471 5.21869 21.2243 4.97981 21.1185C4.94514 20.1401 4.25161 20.5141 4.47123 20.2346C4.51361 20.1817 4.51361 20.1061 4.47893 20.0495C4.32096 19.7851 4.51746 19.3091 4.68699 19.0069C4.71781 18.9503 4.80258 18.9578 4.81799 19.0183C4.8334 19.0674 4.79487 19.0749 4.68314 19.0976C4.38261 20.1477 5.83901 19.5773 6.2166 18.9843C6.23972 18.9465 6.27825 18.9238 6.32448 18.92C6.62886 18.886 6.6828 18.3836 6.83692 18.5801C6.87545 18.633 6.95251 18.6594 7.02186 18.6367Z" stroke="#6F4266" stroke-width="1.5" stroke-miterlimit="10" stroke-linecap="round"/>
<path d="M14.2732 27.0943C14.3349 27.0414 14.4273 27.0528 14.4736 27.1208C14.6431 27.3814 15.0592 27.525 15.0939 27.1321C15.0592 26.9281 15.7489 26.7732 15.7604 27.0226C15.9839 27.253 16.4 27.5287 16.793 27.5438C17.317 27.2341 18.0298 27.5741 18.5769 27.2114C18.889 26.6033 19.571 27.4645 19.7675 26.8752C19.779 26.8375 19.8291 26.8261 19.8561 26.8526C20.0141 27.0263 20.4803 26.3993 20.6305 26.7619C19.991 27.7931 19.0008 28.9793 19.9177 29.9123C20.0757 30.2938 19.2743 30.4675 19.5363 30.834C19.6288 31.2721 19.0894 30.8075 18.8428 30.9171C17.9913 31.0682 17.9065 29.5761 16.9895 29.9009C16.9317 29.9198 16.8701 29.9123 16.8161 29.8858C16.0224 29.459 15.2557 28.5864 14.358 28.6393C14.3156 28.6431 14.2694 28.6317 14.2347 28.6091C13.441 28.152 13.6837 27.6081 14.2732 27.0943Z" stroke="#6F4266" stroke-width="1.5" stroke-miterlimit="10" stroke-linecap="round"/>
</svg>
