<svg width="23" height="22" viewBox="0 0 23 22" fill="none" xmlns="http://www.w3.org/2000/svg">
<path d="M1.2806 -0.000185598H1.71055C1.99433 -0.000185598 2.2265 0.231992 2.2265 0.515764V5.2711C4.08392 2.10661 7.52358 -0.0130843 11.462 -0.000185598C17.3266 0.0170127 22.0991 4.81534 22.0905 10.68C22.0819 16.5618 17.3094 21.3257 11.4276 21.3257C8.68017 21.3257 6.17351 20.2852 4.2817 18.5783C4.06242 18.3805 4.04952 18.0365 4.2602 17.8302L4.56547 17.5249C4.75895 17.3314 5.06852 17.3228 5.2749 17.5034C6.90444 18.9696 9.05853 19.8639 11.4276 19.8639C16.4882 19.8639 20.6287 15.7664 20.6287 10.6628C20.6287 5.60216 16.5312 1.46167 11.4276 1.46167C7.86325 1.46167 4.77615 3.48677 3.2455 6.44918H8.15992C8.44369 6.44918 8.67587 6.68136 8.67587 6.96513V7.39509C8.67587 7.67886 8.44369 7.91104 8.15992 7.91104H1.2806C0.996825 7.91104 0.764648 7.67886 0.764648 7.39509V0.515764C0.764648 0.231992 0.996825 -0.000185598 1.2806 -0.000185598Z" fill="#6F4266"/>
</svg>
