<svg width="27" height="22" viewBox="0 0 27 22" fill="none" xmlns="http://www.w3.org/2000/svg">
<path d="M20.3665 2.66574V0.499826C20.3665 0.224922 20.1222 0 19.8235 0H6.42899C6.13033 0 5.88597 0.224922 5.88597 0.499826V2.66574H0.636771C0.338109 2.66574 0.09375 2.89066 0.09375 3.16556V5.73134C0.09375 8.31794 3.17539 11.3294 7.3657 11.9C8.6961 14.4283 10.7008 15.6612 12.4022 15.9361V19.993H8.51057C7.85895 19.993 7.33403 20.4804 7.33403 21.0802C7.33403 21.2176 7.45621 21.3259 7.60554 21.3259H18.647C18.7963 21.3259 18.9185 21.2176 18.9185 21.0802C18.9185 20.4804 18.3935 19.993 17.7419 19.993H13.8503V15.9361C15.5563 15.6612 17.5564 14.4283 18.8868 11.9C23.0816 11.3294 26.1587 8.31377 26.1587 5.73134V3.16556C26.1587 2.89066 25.9144 2.66574 25.6157 2.66574H20.3665ZM1.54181 5.73134V3.99861H5.88597V4.99826C5.88597 7.15584 6.20273 8.95105 6.72313 10.4214C3.61886 9.68413 1.54181 7.41408 1.54181 5.73134ZM13.1262 14.6616C9.86812 14.6616 7.33403 10.3297 7.33403 4.99826V1.33287H18.9185V4.99826C18.9185 10.3297 16.3844 14.6616 13.1262 14.6616ZM24.7107 5.73134C24.7107 7.41408 22.6291 9.68413 19.5294 10.4214C20.0498 8.95105 20.3665 7.15584 20.3665 4.99826V3.99861H24.7107V5.73134Z" fill="#6F4266"/>
</svg>
