<svg viewBox="0 0 100 100" width="100" height="100" xmlns="http://www.w3.org/2000/svg">
<path fill="hsla(0,0%,50.2%,.5)" d="M50 92.9c-1 0-1.8-.3-2.5-1L12.7 58.2c-.4-.3-.9-.8-1.5-1.5S9.5 54.8 8.1 53s-2.7-3.6-3.8-5.4c-1.1-1.9-2.1-4.1-3-6.8-.9-2.6-1.3-5-1.3-7.6C0 25 2.4 18.6 7.1 14s11.3-6.9 19.6-6.9c2.3 0 4.7.4 7.1 1.2s4.6 1.9 6.7 3.2 3.8 2.6 5.3 3.8 2.9 2.5 4.2 3.8c1.3-1.3 2.8-2.6 4.2-3.8 1.5-1.2 3.3-2.5 5.3-3.8s4.3-2.4 6.7-3.2c2.4-.8 4.8-1.2 7.1-1.2 8.3 0 14.9 2.3 19.6 6.9s7.1 11 7.1 19.2-4.3 16.6-12.8 25.1L52.5 91.9c-.7.6-1.5 1-2.5 1z"></path>
</svg>