<svg viewBox="0 0 100 100" width="100" height="100" xmlns="http://www.w3.org/2000/svg">
<path fill="hsla(0,0%,50.2%,.5)" d="M57.1 82.1h35.7V75H57.1v7.1zM35.7 53.6h57.1v-7.1H35.7v7.1zM71.4 25h21.4v-7.1H71.4V25zM100 71.4v14.3c0 1-.4 1.8-1.1 2.5s-1.5 1.1-2.5 1.1H3.6c-1 0-1.8-.4-2.5-1.1-.7-.7-1.1-1.5-1.1-2.5V71.4c0-1 .4-1.8 1.1-2.5s1.5-1.1 2.5-1.1h92.9c1 0 1.8.4 2.5 1.1.6.7 1 1.6 1 2.5zm0-28.5v14.3c0 1-.4 1.8-1.1 2.5s-1.5 1.1-2.5 1.1H3.6c-1 0-1.8-.4-2.5-1.1-.7-.8-1.1-1.6-1.1-2.6V42.9c0-1 .4-1.8 1.1-2.5s1.5-1.1 2.5-1.1h92.9c1 0 1.8.4 2.5 1.1.6.7 1 1.5 1 2.5zm0-28.6v14.3c0 1-.4 1.8-1.1 2.5s-1.5 1.1-2.5 1.1H3.6c-1 0-1.8-.4-2.5-1.1S0 29.5 0 28.6V14.3c0-1 .4-1.8 1.1-2.5.7-.7 1.5-1.1 2.5-1.1h92.9c1 0 1.8.4 2.5 1.1.6.7 1 1.5 1 2.5z"></path>
</svg>