<svg width="48" height="36" viewBox="0 0 48 36" fill="none" xmlns="http://www.w3.org/2000/svg">
<path d="M47.4 26.4H45.6V18.2925C45.6 17.0325 45.09 15.795 44.19 14.9025L37.8975 8.61C37.0125 7.71 35.775 7.2 34.5075 7.2H31.2V3.495C31.2 1.5675 29.535 0 27.495 0H3.705C1.665 0 0 1.5675 0 3.495V25.305C0 27.2325 1.665 28.8 3.705 28.8H4.92C4.8375 29.19 4.8 29.5875 4.8 30C4.8 33.315 7.485 36 10.8 36C14.115 36 16.8 33.315 16.8 30C16.8 29.5875 16.755 29.19 16.68 28.8H31.32C31.2375 29.19 31.2 29.5875 31.2 30C31.2 33.315 33.885 36 37.2 36C40.515 36 43.2 33.315 43.2 30C43.2 29.5875 43.155 29.19 43.08 28.8H47.4C47.73 28.8 48 28.53 48 28.2V27C48 26.67 47.73 26.4 47.4 26.4ZM34.5075 9.6C35.1375 9.6 35.76 9.855 36.2025 10.305L42.495 16.5975C42.555 16.6575 42.5775 16.74 42.63 16.8075H31.2V9.6075L34.5075 9.6ZM10.8 33.6C8.8125 33.6 7.2 31.9875 7.2 30C7.2 28.0125 8.8125 26.4 10.8 26.4C12.7875 26.4 14.4 28.0125 14.4 30C14.4 31.9875 12.7875 33.6 10.8 33.6ZM15.57 26.4C14.475 24.9525 12.75 24 10.8 24C8.85 24 7.125 24.9525 6.03 26.4H3.705C2.985 26.4 2.4 25.9125 2.4 25.305V3.495C2.4 2.8875 2.985 2.4 3.705 2.4H27.495C28.215 2.4 28.8 2.8875 28.8 3.495V26.4H15.57ZM37.2 33.6C35.2125 33.6 33.6 31.9875 33.6 30C33.6 28.0125 35.2125 26.4 37.2 26.4C39.1875 26.4 40.8 28.0125 40.8 30C40.8 31.9875 39.1875 33.6 37.2 33.6ZM37.2 24C35.2425 24 33.525 24.9525 32.43 26.4H31.2V19.2H43.2V26.4H41.97C40.875 24.9525 39.1575 24 37.2 24Z" fill="#6F4266"/>
</svg>
