<svg width="27" height="36" viewBox="0 0 27 36" fill="none" xmlns="http://www.w3.org/2000/svg">
<path d="M21.9375 29.25H16.3125C16.0031 29.25 15.75 29.5031 15.75 29.8125V30.9375C15.75 31.2469 16.0031 31.5 16.3125 31.5H21.9375C22.2469 31.5 22.5 31.2469 22.5 30.9375V29.8125C22.5 29.5031 22.2469 29.25 21.9375 29.25ZM4.5 16.875V23.625C4.5 24.2437 5.07656 24.75 5.78672 24.75H21.2133C21.9234 24.75 22.5 24.2437 22.5 23.625V16.875C22.5 16.2563 21.9234 15.75 21.2133 15.75H5.78672C5.07656 15.75 4.5 16.2563 4.5 16.875ZM6.75 18H20.25V22.5H6.75V18ZM5.0625 6.75H12.9375C13.2469 6.75 13.5 6.49687 13.5 6.1875V5.0625C13.5 4.75313 13.2469 4.5 12.9375 4.5H5.0625C4.75313 4.5 4.5 4.75313 4.5 5.0625V6.1875C4.5 6.49687 4.75313 6.75 5.0625 6.75ZM5.0625 11.25H12.9375C13.2469 11.25 13.5 10.9969 13.5 10.6875V9.5625C13.5 9.25313 13.2469 9 12.9375 9H5.0625C4.75313 9 4.5 9.25313 4.5 9.5625V10.6875C4.5 10.9969 4.75313 11.25 5.0625 11.25ZM26.0086 6.89062L20.1094 0.991406C19.4766 0.358594 18.6187 0 17.7258 0H3.375C1.51172 0.00703125 0 1.51875 0 3.38203V32.625C0 34.4883 1.51172 36 3.375 36H23.625C25.4883 36 27 34.4883 27 32.625V9.28125C27 8.38828 26.6414 7.52344 26.0086 6.89062ZM18 2.29219C18.1969 2.34141 18.3727 2.43984 18.5203 2.5875L24.4195 8.48672C24.5672 8.63437 24.6656 8.81016 24.7148 9.00703H18V2.29219ZM24.75 32.625C24.75 33.2438 24.2437 33.75 23.625 33.75H3.375C2.75625 33.75 2.25 33.2438 2.25 32.625V3.38203C2.25 2.76328 2.75625 2.25 3.375 2.25H15.75V9.56953C15.75 10.5047 16.5023 11.25 17.4375 11.25H24.75V32.625Z" fill="#6F4266"/>
</svg>
