<svg width="46" height="53" viewBox="0 0 46 53" fill="none" xmlns="http://www.w3.org/2000/svg">
<path d="M21.8651 13.3133C21.5074 16.1955 24.1025 17.6366 26.2878 19.0076C26.574 19.1861 26.7887 19.454 26.8992 19.76C28.0569 23.0312 29.4748 26.8763 33.4033 27.4502C40.935 26.9337 30.1903 28.8212 39.3805 31.308C39.4456 31.3272 39.5041 31.3527 39.5561 31.3909C41.3708 32.7045 43.4911 33.5399 44.6488 35.472C44.8049 36.1925 44.4212 37.927 43.5366 37.1554C42.7756 36.7983 43.0098 35.8673 42.548 35.2424C41.8065 34.9363 40.8049 35.287 40.2065 34.5729C39.5106 32.3602 36.909 37.3722 37.6244 38.0162C39.9139 38.5774 39.4065 39.266 40.0114 40.9813C39.8488 41.5297 39.7317 41.5871 39.1529 41.4086C36.8114 41.5552 38.4439 43.6595 37.0781 44.2844C36.4927 44.5331 36.2456 45.0687 36.0895 45.6171C35.5821 46.6246 33.8911 45.9997 34.2293 44.8137C34.613 44.3227 35.7903 43.6213 35.0683 42.9071C34.9838 42.55 35.5887 42.3077 35.9464 42.3459C37.0716 41.8932 35.5431 40.637 35.7708 39.8017C35.6862 38.8197 34.6195 38.1565 34.8342 37.0916C34.4309 35.5357 33.696 36.6453 32.948 36.2754C30.2748 34.4645 32.6878 35.8737 31.296 33.5335C30.9578 33.0425 28.4927 34.4517 30.0342 33.1381C29.6309 32.679 29.2342 32.577 28.7074 32.6408C28.5578 32.6599 28.4147 32.5706 28.3756 32.4239C28.161 31.6906 27.7252 30.6768 26.9382 30.5684C26.3789 30.9573 25.6244 30.1156 25.0326 30.4918C24.922 30.562 24.7724 30.5492 24.6683 30.46C23.4911 29.4525 21.9952 28.8148 21.1691 27.3418C21.1106 27.2398 21.0261 27.1633 20.9285 27.1059C19.9659 26.5384 19.6797 25.263 18.47 24.9825C18.2943 24.9187 18.1122 24.8741 18.0017 25.11C17.813 25.2822 17.3838 25.008 17.7285 24.8549C18.1838 24.0834 17.0391 23.5987 16.5122 23.1205C16.4277 23.044 16.3952 22.9228 16.4082 22.808C16.4472 22.5338 16.148 22.3043 15.8618 22.3107C15.6862 22.3107 15.5431 22.1768 15.5236 22.0046C15.4 20.6974 14.6326 19.0586 14.3139 17.5729C14.2553 17.1903 13.4943 16.7567 13.0911 16.8077C12.948 16.8268 12.8049 16.8013 12.6878 16.7184C12.0374 16.2529 11.4586 15.5005 10.7301 15.5196C10.587 15.526 10.4504 15.475 10.3334 15.3921C9.03256 14.4675 7.95939 15.7045 7.20491 16.712C7.16589 16.763 7.13987 16.814 7.12686 16.8714C6.94475 17.5537 5.66995 18.3381 4.92199 18.2233C4.63581 18.1786 4.49922 17.8534 4.66182 17.6175C6.00817 15.679 4.27158 16.999 3.00329 16.0999C2.31386 15.9277 2.32687 15.3219 2.27483 14.7863C2.19028 14.6141 2.05369 14.4547 2.32036 14.308C2.535 14.1295 2.36589 13.715 2.76264 13.6895C3.09434 13.5939 2.58052 12.8669 2.3789 12.8733C1.20817 12.8095 0.785402 11.2409 2.26182 11.2728C3.88134 10.6798 2.64556 9.9337 2.48947 9.01547C2.45044 8.81142 2.09272 8.72852 1.94963 8.60099C1.36426 7.74653 2.87321 7.59986 3.37402 7.63812C4.01142 7.65088 4.54475 6.76453 5.1106 7.26828C5.71548 7.78479 6.52199 6.70076 6.74313 6.08861C6.50247 5.75065 6.6976 5.59124 6.97077 5.39994C8.148 3.86318 7.51711 5.40632 8.23256 6.05673C8.38865 6.52222 8.81792 6.47121 9.22117 6.57323C9.30573 6.59236 9.35125 6.69439 9.29922 6.77091C9.29922 6.77091 9.29922 6.77091 9.29922 6.77728C9.22768 6.89206 9.24719 7.0451 9.34475 7.13437C9.50085 7.28103 9.53337 7.48509 9.60491 7.65088C9.67646 7.81667 9.93662 7.76566 9.93662 7.58711C9.93662 6.5286 10.9187 6.21614 10.8732 5.0556C10.9187 3.3403 11.7643 5.67413 12.4667 5.57848C13.2082 4.16288 14.2553 6.90482 14.0862 5.46371C14.2553 4.86431 13.6114 4.90894 13.735 4.42432C13.8976 4.06723 14.0537 3.76753 14.4895 3.86956C14.47 4.30316 15.0748 4.30954 15.2439 4.03535C15.1399 3.64 14.9773 3.53797 15.1659 3.09161C15.0358 2.53047 15.7838 2.5496 16.187 2.61337C17.0195 3.56348 17.2797 2.88756 17.7415 2.24352C17.8 2.16063 17.8911 2.10324 17.9887 2.08411C19.27 1.82905 20.3301 1.84818 21.5854 1.35718C22.0212 1.46558 20.9285 2.19889 21.7805 2.41569C22.1382 2.9577 22.3919 3.67826 23.2049 3.65275C31.1854 4.57736 23.6667 5.06198 26.8862 6.08861C27.1594 6.45845 25.6895 7.00684 26.7301 7.1535C27.2635 7.37668 26.3204 7.95695 27.0878 8.16738C27.2895 8.31404 27.6732 8.57548 27.7773 8.82417C27.8748 9.04735 27.5301 9.20039 27.413 8.98359C27.1464 8.49896 26.5805 7.84855 26.4895 8.53722C25.9171 9.02184 25.3382 7.63175 24.8114 8.56273C25.3968 8.55635 25.1236 8.80504 24.8179 8.91982C23.283 9.24503 20.7074 10.7308 22.6911 12.2165C22.8992 12.5481 22.6911 13.2113 22.2423 13.0901C22.0732 13.02 21.8911 13.1347 21.8651 13.3133Z" stroke="#6F4266" stroke-width="1.5" stroke-miterlimit="10" stroke-linecap="round"/>
<path d="M11.1658 30.7724C11.6861 30.6002 11.4455 31.0402 11.6211 31.1167C11.7447 31.1677 11.8162 31.2953 11.8292 31.4228C11.8943 32.1561 12.3756 33.272 12.6682 33.7566C12.9024 34.0946 12.8634 34.4644 12.5577 34.745C12.0894 35.185 12.0373 35.4911 12.3821 35.9757C12.4276 36.0331 12.4471 36.1096 12.4471 36.1797C12.4406 37.5571 12.2325 39.0173 11.8877 40.3819C11.8487 40.535 11.6731 40.5987 11.543 40.5094C10.4894 39.808 9.94303 39.8527 9.81946 41.2364C8.81133 42.6137 8.01133 39.9929 7.84222 40.9367C7.82271 41.0578 7.6471 41.0642 7.61458 40.9494C7.53653 40.6242 7.86824 40.3564 7.67962 39.8973C7.3284 38.8324 8.82433 36.7473 7.70564 37.0151C7.38043 36.3965 8.03734 36.32 7.91377 35.8099C7.8097 35.5166 8.1219 35.1404 7.71864 34.9618C7.66011 33.3103 6.48937 33.9416 6.86011 33.4697C6.93165 33.3804 6.93165 33.2529 6.87312 33.1572C6.60645 32.7109 6.93816 31.9074 7.22433 31.3973C7.27637 31.3017 7.41946 31.3144 7.44547 31.4164C7.47149 31.4993 7.40645 31.5121 7.21783 31.5503C6.71051 33.323 9.16905 32.3602 9.80645 31.359C9.84547 31.2953 9.91051 31.257 9.98856 31.2506C10.5024 31.1933 10.5934 30.3452 10.8536 30.6767C10.9186 30.766 11.0487 30.8107 11.1658 30.7724Z" stroke="#6F4266" stroke-width="1.5" stroke-miterlimit="10" stroke-linecap="round"/>
<path d="M23.4064 45.0496C23.5105 44.9603 23.6666 44.9795 23.7446 45.0942C24.0308 45.5342 24.7332 45.7765 24.7918 45.1134C24.7332 44.769 25.8975 44.5076 25.917 44.9285C26.2942 45.3174 26.9967 45.7829 27.6601 45.8084C28.5446 45.2855 29.7479 45.8594 30.6715 45.2473C31.1983 44.2207 32.3495 45.6745 32.6812 44.6798C32.7007 44.616 32.7853 44.5969 32.8308 44.6415C33.0975 44.9348 33.8845 43.8763 34.1381 44.4885C33.0584 46.2293 31.3869 48.2315 32.9349 49.8065C33.2015 50.4506 31.8487 50.7439 32.291 51.3624C32.4471 52.1021 31.5365 51.3178 31.1202 51.5027C29.6828 51.7578 29.5397 49.239 27.9918 49.7874C27.8942 49.8193 27.7902 49.8065 27.6991 49.7619C26.3593 49.0413 25.065 47.5684 23.5495 47.6576C23.478 47.664 23.3999 47.6449 23.3414 47.6066C22.0015 46.8351 22.4113 45.9168 23.4064 45.0496Z" stroke="#6F4266" stroke-width="1.5" stroke-miterlimit="10" stroke-linecap="round"/>
</svg>
