<svg width="36" height="36" viewBox="0 0 36 36" fill="none" xmlns="http://www.w3.org/2000/svg">
<path d="M0.870967 -0.000389456H1.59677C2.07581 -0.000389456 2.46774 0.391546 2.46774 0.870578V8.898C5.60322 3.55606 11.4097 -0.0221637 18.0581 -0.000389456C27.958 0.0286428 36.0145 8.12864 36 18.0286C35.9855 27.9577 27.929 35.9996 18 35.9996C13.3621 35.9996 9.13064 34.2432 5.93709 31.3617C5.56693 31.0278 5.54516 30.4472 5.9008 30.0988L6.41612 29.5835C6.74274 29.2569 7.26532 29.2424 7.6137 29.5472C10.3645 32.0222 14.0008 33.5319 18 33.5319C26.5427 33.5319 33.5322 26.6149 33.5322 17.9996C33.5322 9.45687 26.6153 2.46735 18 2.46735C11.9831 2.46735 6.77177 5.8859 4.1879 10.8867H12.4839C12.9629 10.8867 13.3548 11.2786 13.3548 11.7577V12.4835C13.3548 12.9625 12.9629 13.3544 12.4839 13.3544H0.870967C0.391935 13.3544 0 12.9625 0 12.4835V0.870578C0 0.391546 0.391935 -0.000389456 0.870967 -0.000389456Z" fill="#6F4266"/>
</svg>
