<svg width="44" height="36" viewBox="0 0 44 36" fill="none" xmlns="http://www.w3.org/2000/svg">
<path d="M34.2222 4.5V0.84375C34.2222 0.379688 33.8097 0 33.3056 0H10.6944C10.1903 0 9.77778 0.379688 9.77778 0.84375V4.5H0.916667C0.4125 4.5 0 4.87969 0 5.34375V9.675C0 14.0414 5.20208 19.125 12.2757 20.0883C14.5215 24.3563 17.9056 26.4375 20.7778 26.9016V33.75H14.2083C13.1083 33.75 12.2222 34.5727 12.2222 35.5852C12.2222 35.8172 12.4285 36 12.6806 36H31.3194C31.5715 36 31.7778 35.8172 31.7778 35.5852C31.7778 34.5727 30.8917 33.75 29.7917 33.75H23.2222V26.9016C26.1021 26.4375 29.4785 24.3563 31.7243 20.0883C38.8056 19.125 44 14.0344 44 9.675V5.34375C44 4.87969 43.5875 4.5 43.0833 4.5H34.2222ZM2.44444 9.675V6.75H9.77778V8.4375C9.77778 12.0797 10.3125 15.1102 11.191 17.5922C5.95069 16.3477 2.44444 12.5156 2.44444 9.675ZM22 24.75C16.5 24.75 12.2222 17.4375 12.2222 8.4375V2.25H31.7778V8.4375C31.7778 17.4375 27.5 24.75 22 24.75ZM41.5556 9.675C41.5556 12.5156 38.0417 16.3477 32.809 17.5922C33.6875 15.1102 34.2222 12.0797 34.2222 8.4375V6.75H41.5556V9.675Z" fill="#6F4266"/>
</svg>
